# xmcd
#
# Track frame offsets:
#	150
#	13189
#	31693
#	47246
#	61096
#	73388
#	84856
#	101058
#	116117
#	134477
#	151151
#	165015
#	180311
#	193501
#	206922
#	221204
#	236531
#	251688
#	263517
#	274434
#	293253
#	310098
#	327276
#	341788
#
# Disc length: 4795 seconds
#
# Revision: 1
# Processed by: cddbd v1.5.2PL0 Copyright (c) Steve Scherf et al.
# Submitted via: audiograbber 1.83.01
#
DISCID=5912b918
DTITLE=Western Heart - Western Heart 080
DYEAR=2007
DGENRE=Country
TTITLE0=Did He Mention My Name  - Cindy Standage
TTITLE1=T For Texas  - The Shady Creek Outlaws
TTITLE2=It압 The Way That You Do It  - Cheryl K Warner
TTITLE3=Marie  - Hall Willis
TTITLE4=I앐 All In  - David Cline
TTITLE5=Skinny Dipping With Paris Hilton  - Perley Curtis
TTITLE6=Johnny압 Affair - Tim Chesney
TTITLE7=Hey Cowboy  - Tumbleweed Junction
TTITLE8=My Country Mamma Is A Mystery To Me  - Richard Draime
TTITLE9=They Know Youre Gone - Cerrito
TTITLE10=The Mansion You Stole  - Ervin Allen
TTITLE11=Something In Your Eyes  - Mike Lounibos
TTITLE12=Lonely Street  - Mike Runnels
TTITLE13=Heartaches By The Number  - Mike Anderson
TTITLE14=Think Anything You Want - Tumbleweed Junction
TTITLE15=Washed In Blood  - Cindy Standage
TTITLE16=Tgis (thank God It압 Sunday)  - Jerry Yates
TTITLE17=Mixture Of Mary And Martha  - Judy Weldon
TTITLE18=Time Is Now Forever  - Eddie Drayton
TTITLE19=He앇 Have To Walk Through Blood  - Cheryl Edelman
TTITLE20=Where Children Play  - Eddie Drayton
TTITLE21=Jesus Again  - Shane Tecza
TTITLE22=Wore Out  - Jim Russ
TTITLE23=A Baby압 Dream  - Eddie Russ
EXTD=
EXTT0=
EXTT1=
EXTT2=
EXTT3=
EXTT4=
EXTT5=
EXTT6=
EXTT7=
EXTT8=
EXTT9=
EXTT10=
EXTT11=
EXTT12=
EXTT13=
EXTT14=
EXTT15=
EXTT16=
EXTT17=
EXTT18=
EXTT19=
EXTT20=
EXTT21=
EXTT22=
EXTT23=
PLAYORDER=
